<?xml version="1.0" encoding="UTF-8"?>
<!DOCTYPE svg PUBLIC "-//W3C//DTD SVG 1.1//EN" "http://www.w3.org/Graphics/SVG/1.1/DTD/svg11.dtd">
<!-- Creator: CorelDRAW X6 -->
<svg xmlns="http://www.w3.org/2000/svg" xml:space="preserve" width="895px" height="172px" version="1.1" style="shape-rendering:geometricPrecision; text-rendering:geometricPrecision; image-rendering:optimizeQuality; fill-rule:evenodd; clip-rule:evenodd"
viewBox="0 0 367 71"
 xmlns:xlink="http://www.w3.org/1999/xlink">
 <defs>
  <style type="text/css">
   <![CDATA[
    .fil0 {fill:#E31E24}
    .fil1 {fill:#FFCD02;fill-rule:nonzero}
   ]]>
  </style>
 </defs>
 <g id="Слой_x0020_1">
  <metadata id="CorelCorpID_0Corel-Layer"/>
  <path class="fil0" d="M43 55l11 0 0 -36 -11 0 0 36zm-1 -48c0,4 3,7 7,7 3,0 6,-3 6,-7 0,-4 -3,-7 -6,-7 -4,0 -7,3 -7,7zm20 48l12 0 0 -23c1,-2 3,-2 5,-2 3,0 6,1 6,6l0 19 11 0 0 -21c0,-12 -6,-16 -14,-16 -3,0 -7,2 -8,4l0 -3 -12 0 0 36zm81 -18c0,11 8,19 19,19 12,0 19,-8 19,-19 0,-11 -7,-19 -19,-19 -11,0 -19,8 -19,19zm12 0c0,-5 4,-8 7,-8 4,0 7,3 7,8 0,5 -3,8 -7,8 -4,0 -7,-3 -7,-8zm-155 17c3,1 11,1 17,1 12,0 22,-5 22,-16 0,-6 -4,-10 -9,-11l0 0c5,-3 7,-6 7,-11 0,-7 -6,-13 -19,-13 -7,0 -15,0 -18,1l0 49zm18 -20c6,0 7,2 7,5 0,3 -1,4 -4,4 -2,0 -5,0 -8,0l0 -9 5 0zm6 -15c0,4 -3,5 -6,5l-5 0 0 -8c6,0 11,-1 11,3zm76 18c0,10 7,18 17,18 4,0 8,-2 11,-4l0 2c0,5 -4,7 -8,7 -4,0 -7,-3 -8,-4l-9 5c2,2 6,9 15,9 13,1 21,-4 21,-17l0 -34 -11 0 0 3c-3,-2 -7,-4 -11,-4 -10,0 -17,8 -17,19zm12 0c0,-5 4,-8 8,-8 4,0 8,3 8,8 0,4 -4,7 -8,7 -4,0 -8,-3 -8,-7z"/>
  <path class="fil1" d="M187 55c3,0 11,0 16,0 13,0 22,-5 22,-15 0,-7 -4,-11 -8,-12l0 0c4,-3 7,-6 7,-11 0,-7 -6,-13 -20,-13 -6,0 -14,0 -17,1l0 50zm18 -21c6,0 7,2 7,5 0,3 -1,4 -4,4 -2,0 -6,0 -8,0l0 -9 5 0zm6 -15c0,4 -3,5 -7,5l-4 0 0 -8c6,0 11,-1 11,3zm17 18c0,11 8,19 20,19 12,0 20,-8 20,-19 0,-11 -8,-19 -20,-19 -12,0 -20,8 -20,19zm13 0c0,-5 3,-8 7,-8 4,0 7,3 7,8 0,5 -3,8 -7,8 -4,0 -7,-3 -7,-8zm29 0c0,11 8,19 20,19 11,0 19,-8 19,-19 0,-11 -8,-19 -19,-19 -12,0 -20,8 -20,19zm13 0c0,-5 3,-8 7,-8 3,0 6,3 6,8 0,5 -3,8 -6,8 -4,0 -7,-3 -7,-8zm84 -6c0,-9 -4,-13 -11,-13 -5,0 -9,3 -11,6 -1,-3 -5,-6 -10,-6 -4,0 -8,2 -10,4l0 -3 -12 0 0 36 12 0 0 -23c1,-2 3,-2 5,-2 3,0 4,2 4,5l0 20 12 0 0 -22c1,-2 3,-3 5,-3 4,0 5,2 5,5l0 20 11 0 0 -24z"/>
 </g>
</svg>
